0
SECTION
2
HEADER
9
$INSUNITS
70
4
9
$ACADVER
1
AC1014
9
$HANDSEED
5
FFFF
0
ENDSEC
0
SECTION
2
TABLES
0
TABLE
2
VPORT
5
8
100
AcDbSymbolTable
0
ENDTAB
0
TABLE
2
LTYPE
5
5
100
AcDbSymbolTable
0
LTYPE
5
14
100
AcDbSymbolTableRecord
100
AcDbLinetypeTableRecord
2
BYBLOCK
70
0
0
LTYPE
5
15
100
AcDbSymbolTableRecord
100
AcDbLinetypeTableRecord
2
BYLAYER
70
0
0
ENDTAB
0
TABLE
2
LAYER
5
2
100
AcDbSymbolTable
70
2
0
LAYER
5
50
100
AcDbSymbolTableRecord
100
AcDbLayerTableRecord
2
0
70
0
6
CONTINUOUS
0
ENDTAB
0
TABLE
2
STYLE
5
3
100
AcDbSymbolTable
70
1
0
STYLE
5
11
100
AcDbSymbolTableRecord
100
AcDbTextStyleTableRecord
2
STANDARD
70
0
0
ENDTAB
0
TABLE
2
VIEW
5
6
100
AcDbSymbolTable
70
0
0
ENDTAB
0
TABLE
2
UCS
5
7
100
AcDbSymbolTable
70
0
0
ENDTAB
0
TABLE
2
APPID
5
9
100
AcDbSymbolTable
70
2
0
APPID
5
12
100
AcDbSymbolTableRecord
100
AcDbRegAppTableRecord
2
ACAD
70
0
0
ENDTAB
0
TABLE
2
DIMSTYLE
5
A
100
AcDbSymbolTable
70
1
0
ENDTAB
0
TABLE
2
BLOCK_RECORD
5
1
100
AcDbSymbolTable
70
1
0
BLOCK_RECORD
5
1F
100
AcDbSymbolTableRecord
100
AcDbBlockTableRecord
2
*MODEL_SPACE
0
BLOCK_RECORD
5
1B
100
AcDbSymbolTableRecord
100
AcDbBlockTableRecord
2
*PAPER_SPACE
0
ENDTAB
0
ENDSEC
0
SECTION
2
BLOCKS
0
BLOCK
5
20
100
AcDbEntity
100
AcDbBlockBegin
2
*MODEL_SPACE
0
ENDBLK
5
21
100
AcDbEntity
100
AcDbBlockEnd
0
BLOCK
5
1C
100
AcDbEntity
100
AcDbBlockBegin
2
*PAPER_SPACE
0
ENDBLK
5
1D
100
AcDbEntity
100
AcDbBlockEnd
0
ENDSEC
0
SECTION
2
ENTITIES
0
LINE
5
100
100
AcDbEntity
8
0
100
AcDbLine
10
183.76417300000014
20
-0.5191560000000095
30
3.1749999999999998
11
183.76417300000014
21
-25.519156000000009
31
3.1749999999999998
0
CIRCLE
5
101
100
AcDbEntity
8
0
100
AcDbCircle
10
-156.48449600000006
20
47.78148999999992
30
-3.1750000000000678
40
2.5795000000000003
210
1.0000000000000001e-16
220
0
230
-1
0
ARC
5
102
100
AcDbEntity
8
0
100
AcDbCircle
10
0.10235299999990813
20
-0.5191560000000095
30
-3.1750000000000678
40
85.92800000000075
210
9.6902903415517665e-17
220
0
230
-1
100
AcDbArc
50
0
51
180
0
CIRCLE
5
103
100
AcDbEntity
8
0
100
AcDbCircle
10
41.329120999999915
20
158.077021
30
-3.1750000000000673
40
2.5795000000000003
210
1.0000000000000001e-16
220
0
230
-1
0
CIRCLE
5
104
100
AcDbEntity
8
0
100
AcDbCircle
10
-0.10235299999990843
20
180.84737000000004
30
3.1749999999999998
40
1.5000000000000002
210
0
220
0
230
1
0
CIRCLE
5
105
100
AcDbEntity
8
0
100
AcDbCircle
10
-113.14001000000005
20
117.92307000000001
30
-3.1750000000000678
40
2.5795000000000003
210
1.0000000000000001e-16
220
0
230
-1
0
CIRCLE
5
106
100
AcDbEntity
8
0
100
AcDbCircle
10
-41.124415000000027
20
158.077021
30
-3.1750000000000682
40
2.5795000000000003
210
1.0000000000000001e-16
220
0
230
-1
0
CIRCLE
5
107
100
AcDbEntity
8
0
100
AcDbCircle
10
68.414359000000076
20
67.997556000000046
30
3.1749999999999998
40
2.5795000000000003
210
0
220
0
230
1
0
ARC
5
108
100
AcDbEntity
8
0
100
AcDbCircle
10
0.10235299999990813
20
-0.5191560000000095
30
-3.1750000000000678
40
183.86652640600204
210
9.9630314796206964e-17
220
0
230
-1
100
AcDbArc
50
0
51
180
0
ARC
5
109
100
AcDbEntity
8
0
100
AcDbCircle
10
-110.82564700000006
20
-25.802230000000037
30
-3.1750000000000678
40
24.999999999999964
210
1.0108020928865833e-16
220
7.117057903849027e-18
230
-1
100
AcDbArc
50
-81.369658000000101
51
0
0
ARC
5
110
100
AcDbEntity
8
0
100
AcDbCircle
10
126.96887899999993
20
-0.5191560000000095
30
-3.1750000000000664
40
19.000000000000011
210
9.1597410866841553e-17
220
2.3284233487271091e-18
230
-1
100
AcDbArc
50
-164.51152999999999
51
0
0
CIRCLE
5
111
100
AcDbEntity
8
0
100
AcDbCircle
10
-128.34785399999993
20
127.72634500000002
30
3.1749999999999998
40
1.5000000000000002
210
0
220
0
230
1
0
ARC
5
112
100
AcDbEntity
8
0
100
AcDbCircle
10
0.10235299999990813
20
-0.5191560000000095
30
-3.1750000000000678
40
145.86652640600198
210
9.894593143292377e-17
220
0
230
-1
100
AcDbArc
50
0
51
180
0
CIRCLE
5
113
100
AcDbEntity
8
0
100
AcDbCircle
10
156.68920199999988
20
47.78148999999992
30
-3.1750000000000678
40
2.5795000000000003
210
1.0000000000000001e-16
220
0
230
-1
0
LINE
5
114
100
AcDbEntity
8
0
100
AcDbLine
10
-183.96887899999996
20
-0.5191560000000095
30
3.1749999999999998
11
-183.96887899999996
21
-25.519156000000009
31
3.1749999999999998
0
CIRCLE
5
115
100
AcDbEntity
8
0
100
AcDbCircle
10
-160.18376000000004
20
-34.589021000000031
30
-3.1750000000000678
40
2.5795000000000003
210
1.0000000000000001e-16
220
0
230
-1
0
CIRCLE
5
116
100
AcDbEntity
8
0
100
AcDbCircle
10
-181.46887899999996
20
-0.5191560000000095
30
3.1749999999999998
40
1.5000000000000002
210
0
220
0
230
1
0
CIRCLE
5
117
100
AcDbEntity
8
0
100
AcDbCircle
10
181.26417300000014
20
-0.5191560000000095
30
3.1749999999999998
40
1.5000000000000002
210
0
220
0
230
1
0
CIRCLE
5
118
100
AcDbEntity
8
0
100
AcDbCircle
10
128.14314800000005
20
127.72634500000002
30
3.1749999999999998
40
1.5000000000000002
210
0
220
0
230
1
0
LINE
5
119
100
AcDbEntity
8
0
100
AcDbLine
10
158.76417300000014
20
-50.519156000000009
30
3.1749999999999998
11
108.45417300000022
21
-50.519156000000009
31
3.1749999999999998
0
ARC
5
120
100
AcDbEntity
8
0
100
AcDbCircle
10
-42.62628153197258
20
118.01064462176677
30
16.545199824953663
40
18.999999999999911
210
0.1554478663602859
220
0.054786432874328411
230
-0.98632368298492235
100
AcDbArc
50
109.41462312169561
51
273.92615312169562
0
ARC
5
121
100
AcDbEntity
8
0
100
AcDbCircle
10
158.96887899999996
20
-25.519156000000009
30
-3.1750000000000682
40
25
210
1.0000000000000001e-16
220
0
230
-1
100
AcDbArc
50
-90
51
0
0
LINE
5
122
100
AcDbEntity
8
0
100
AcDbLine
10
-86.030353000000659
20
-0.5191560000000095
30
3.1750000000000593
11
-86.030352999999948
21
-25.802230000000037
31
3.1749999999999998
0
CIRCLE
5
123
100
AcDbEntity
8
0
100
AcDbCircle
10
-68.619065000000035
20
67.997556000000046
30
3.1749999999999998
40
2.5795000000000003
210
0
220
0
230
1
0
LINE
5
124
100
AcDbEntity
8
0
100
AcDbLine
10
-108.6588789999999
20
-50.519156000000009
30
3.1749999999999998
11
-158.96887899999996
21
-50.519156000000009
31
3.1750000000000522
0
CIRCLE
5
125
100
AcDbEntity
8
0
100
AcDbCircle
10
-96.999616000000017
20
-0.5191560000000095
30
3.1749999999999998
40
2.5795000000000003
210
0
220
0
230
1
0
CIRCLE
5
126
100
AcDbEntity
8
0
100
AcDbCircle
10
160.38846599999994
20
-34.589021000000031
30
-3.1750000000000682
40
2.5795000000000003
210
1.0000000000000001e-16
220
0
230
-1
0
ARC
5
127
100
AcDbEntity
8
0
100
AcDbCircle
10
-158.76417300000011
20
-25.519156000000009
30
-3.1750000000006122
40
25
210
-3.3306690738754696e-15
220
-0
230
-1
100
AcDbArc
50
180
51
270
0
CIRCLE
5
128
100
AcDbEntity
8
0
100
AcDbCircle
10
113.34471600000001
20
117.92307000000001
30
-3.1750000000000678
40
2.5795000000000003
210
1.0000000000000001e-16
220
0
230
-1
0
CIRCLE
5
129
100
AcDbEntity
8
0
100
AcDbCircle
10
96.794909999999987
20
-0.5191560000000095
30
3.1749999999999998
40
2.5795000000000003
210
0
220
0
230
1
0
CIRCLE
5
130
100
AcDbEntity
8
0
100
AcDbCircle
10
-0.10235299999990843
20
96.378107000000028
30
3.1749999999999998
40
2.5795000000000003
210
0
220
0
230
1
0
ARC
5
131
100
AcDbEntity
8
0
100
AcDbCircle
10
111.03035299999995
20
-25.802230000000037
30
-3.1749999999998053
40
25
210
-2.2648549702353196e-15
220
-0
230
-1
100
AcDbArc
50
180
51
261.36965799999996
0
LINE
5
132
100
AcDbEntity
8
0
100
AcDbLine
10
85.825647000000913
20
-0.5191560000000095
30
3.1750000000000762
11
85.82564700000006
21
-25.802230000000037
31
3.1750000000000762
0
LINE
5
133
100
AcDbEntity
8
0
100
AcDbLine
10
115.58293965402656
20
-29.577030262619385
30
0
11
100.98068081491033
21
-39.916400070472243
31
0
0
LINE
5
134
100
AcDbEntity
8
0
100
AcDbLine
10
-119.86399054616405
20
-25.302257874951163
30
0
11
-99.975435164717823
21
-39.993803809989345
31
0
0
ARC
5
135
100
AcDbEntity
8
0
100
AcDbCircle
10
0
20
0
30
0
40
105.99279180772939
210
-0
220
0
230
1
100
AcDbArc
50
-0.1842393326119583
51
180.20882717727926
0
LINE
5
136
100
AcDbEntity
8
0
100
AcDbLine
10
-107.95334982071495
20
-0.37584299363146922
30
0
11
-105.99208780454023
21
-0.38631338483062549
31
0
0
LINE
5
137
100
AcDbEntity
8
0
100
AcDbLine
10
-86.030353000000659
20
-0.5191560000000095
30
3.1750000000000593
11
-86.030352999999948
21
-25.802230000000037
31
3.1749999999999998
0
CIRCLE
5
138
100
AcDbEntity
8
0
100
AcDbCircle
10
113.34471600000001
20
117.92307000000001
30
-3.1750000000000678
40
2.5795000000000003
210
1.0000000000000001e-16
220
0
230
-1
0
CIRCLE
5
139
100
AcDbEntity
8
0
100
AcDbCircle
10
-41.124415000000027
20
158.077021
30
-3.1750000000000682
40
2.5795000000000003
210
1.0000000000000001e-16
220
0
230
-1
0
CIRCLE
5
140
100
AcDbEntity
8
0
100
AcDbCircle
10
-128.34785399999993
20
127.72634500000002
30
3.1749999999999998
40
1.5000000000000002
210
0
220
0
230
1
0
CIRCLE
5
141
100
AcDbEntity
8
0
100
AcDbCircle
10
68.414359000000076
20
67.997556000000046
30
3.1749999999999998
40
2.5795000000000003
210
0
220
0
230
1
0
CIRCLE
5
142
100
AcDbEntity
8
0
100
AcDbCircle
10
160.38846599999994
20
-34.589021000000031
30
-3.1750000000000682
40
2.5795000000000003
210
1.0000000000000001e-16
220
0
230
-1
0
ARC
5
143
100
AcDbEntity
8
0
100
AcDbCircle
10
126.96887899999993
20
-0.5191560000000095
30
-3.1750000000000664
40
19.000000000000011
210
9.1597410866841553e-17
220
2.3284233487271091e-18
230
-1
100
AcDbArc
50
-164.51152999999999
51
0
0
LINE
5
144
100
AcDbEntity
8
0
100
AcDbLine
10
158.76417300000014
20
-50.519156000000009
30
3.1749999999999998
11
108.45417300000022
21
-50.519156000000009
31
3.1749999999999998
0
CIRCLE
5
145
100
AcDbEntity
8
0
100
AcDbCircle
10
-160.18376000000004
20
-34.589021000000031
30
-3.1750000000000678
40
2.5795000000000003
210
1.0000000000000001e-16
220
0
230
-1
0
CIRCLE
5
146
100
AcDbEntity
8
0
100
AcDbCircle
10
-68.619065000000035
20
67.997556000000046
30
3.1749999999999998
40
2.5795000000000003
210
0
220
0
230
1
0
CIRCLE
5
147
100
AcDbEntity
8
0
100
AcDbCircle
10
181.26417300000014
20
-0.5191560000000095
30
3.1749999999999998
40
1.5000000000000002
210
0
220
0
230
1
0
CIRCLE
5
148
100
AcDbEntity
8
0
100
AcDbCircle
10
96.794909999999987
20
-0.5191560000000095
30
3.1749999999999998
40
2.5795000000000003
210
0
220
0
230
1
0
CIRCLE
5
149
100
AcDbEntity
8
0
100
AcDbCircle
10
-96.999616000000017
20
-0.5191560000000095
30
3.1749999999999998
40
2.5795000000000003
210
0
220
0
230
1
0
LINE
5
150
100
AcDbEntity
8
0
100
AcDbLine
10
183.76417300000014
20
-0.5191560000000095
30
3.1749999999999998
11
183.76417300000014
21
-25.519156000000009
31
3.1749999999999998
0
ARC
5
151
100
AcDbEntity
8
0
100
AcDbCircle
10
-110.82564700000006
20
-25.802230000000037
30
-3.1750000000000678
40
24.999999999999964
210
1.0108020928865833e-16
220
7.117057903849027e-18
230
-1
100
AcDbArc
50
-81.369658000000101
51
0
0
CIRCLE
5
152
100
AcDbEntity
8
0
100
AcDbCircle
10
156.68920199999988
20
47.78148999999992
30
-3.1750000000000678
40
2.5795000000000003
210
1.0000000000000001e-16
220
0
230
-1
0
LINE
5
153
100
AcDbEntity
8
0
100
AcDbLine
10
106.11307685092264
20
-50.343834542230454
30
0
11
111.47884507163903
21
-44.978066321514035
31
0
0
LINE
5
154
100
AcDbEntity
8
0
100
AcDbLine
10
102.4276915605372
20
-40.013298572808395
30
0
11
116.36126930932579
21
-29.570395696858569
31
0
0
CIRCLE
5
155
100
AcDbEntity
8
0
100
AcDbCircle
10
-0.10235299999990843
20
180.84737000000004
30
3.1749999999999998
40
1.5000000000000002
210
0
220
0
230
1
0
LINE
5
156
100
AcDbEntity
8
0
100
AcDbLine
10
107.92350025963336
20
-0.36446628571437245
30
0
11
105.88824185699268
21
-0.3644319408838137
31
0
0
CIRCLE
5
157
100
AcDbEntity
8
0
100
AcDbCircle
10
-181.46887899999996
20
-0.5191560000000095
30
3.1749999999999998
40
1.5000000000000002
210
0
220
0
230
1
0
CIRCLE
5
158
100
AcDbEntity
8
0
100
AcDbCircle
10
-113.14001000000005
20
117.92307000000001
30
-3.1750000000000678
40
2.5795000000000003
210
1.0000000000000001e-16
220
0
230
-1
0
ARC
5
159
100
AcDbEntity
8
0
100
AcDbCircle
10
-126.76417300000011
20
-0.5191560000000095
30
-3.1750000000000695
40
18.999999999999915
210
8.7649186154618017e-17
220
0
230
-1
100
AcDbArc
50
180
51
344.51152999999999
0
LINE
5
160
100
AcDbEntity
8
0
100
AcDbLine
10
108.44644678880941
20
-50.498653413525687
30
0
11
107.04116596702556
21
-50.498653413525687
31
0
0
LINE
5
161
100
AcDbEntity
8
0
100
AcDbLine
10
100.98068081491033
20
-39.916400070472243
30
0
11
110.04405058608884
21
-45.036398152108262
31
0
0
LINE
5
162
100
AcDbEntity
8
0
100
AcDbLine
10
-108.6588789999999
20
-50.519156000000009
30
3.1749999999999998
11
-158.96887899999996
21
-50.519156000000009
31
3.1750000000000522
0
LINE
5
163
100
AcDbEntity
8
0
100
AcDbLine
10
111.47884507163903
20
-44.978066321514035
30
0
11
102.4276915605372
21
-40.013298572808395
31
0
0
CIRCLE
5
164
100
AcDbEntity
8
0
100
AcDbCircle
10
-0.10235299999990843
20
96.378107000000028
30
3.1749999999999998
40
2.5795000000000003
210
0
220
0
230
1
0
LINE
5
165
100
AcDbEntity
8
0
100
AcDbLine
10
85.825647000000913
20
-0.5191560000000095
30
3.1750000000000762
11
85.82564700000006
21
-25.802230000000037
31
3.1750000000000762
0
ARC
5
166
100
AcDbEntity
8
0
100
AcDbCircle
10
-158.76417300000011
20
-25.519156000000009
30
-3.1750000000006122
40
25
210
-3.3306690738754696e-15
220
-0
230
-1
100
AcDbArc
50
180
51
270
0
LINE
5
167
100
AcDbEntity
8
0
100
AcDbLine
10
-100.07642070858005
20
-9.7991261951988502
30
0
11
-119.86399054616405
21
-25.302257874951163
31
0
0
CIRCLE
5
168
100
AcDbEntity
8
0
100
AcDbCircle
10
-156.48449600000006
20
47.78148999999992
30
-3.1750000000000678
40
2.5795000000000003
210
1.0000000000000001e-16
220
0
230
-1
0
LINE
5
169
100
AcDbEntity
8
0
100
AcDbLine
10
-183.96887899999996
20
-0.5191560000000095
30
3.1749999999999998
11
-183.96887899999996
21
-25.519156000000009
31
3.1749999999999998
0
LINE
5
170
100
AcDbEntity
8
0
100
AcDbLine
10
100.50655929186739
20
-14.306981488724638
30
0
11
115.58293965402656
21
-29.577030262619385
31
0
0
ARC
5
171
100
AcDbEntity
8
0
100
AcDbCircle
10
158.96887899999996
20
-25.519156000000009
30
-3.1750000000000682
40
25
210
1.0000000000000001e-16
220
0
230
-1
100
AcDbArc
50
-90
51
0
0
ARC
5
172
100
AcDbEntity
8
0
100
AcDbCircle
10
111.03035299999995
20
-25.802230000000037
30
-3.1749999999998053
40
25
210
-2.2648549702353196e-15
220
-0
230
-1
100
AcDbArc
50
180
51
261.36965799999996
0
LINE
5
173
100
AcDbEntity
8
0
100
AcDbLine
10
110.04405058608884
20
-45.036398152108262
30
0
11
103.26040334961876
21
-49.591371094407457
31
0
0
LINE
5
174
100
AcDbEntity
8
0
100
AcDbLine
10
116.36126930932579
20
-29.570395696858569
30
0
11
101.11271312462797
21
-14.321839512160802
31
0.00053761129308247952
0
CIRCLE
5
175
100
AcDbEntity
8
0
100
AcDbCircle
10
41.329120999999915
20
158.077021
30
-3.1750000000000673
40
2.5795000000000003
210
1.0000000000000001e-16
220
0
230
-1
0
CIRCLE
5
176
100
AcDbEntity
8
0
100
AcDbCircle
10
128.14314800000005
20
127.72634500000002
30
3.1749999999999998
40
1.5000000000000002
210
0
220
0
230
1
0
ARC
5
177
100
AcDbEntity
8
0
100
AcDbCircle
10
0.10235299999990813
20
-0.5191560000000095
30
-3.1750000000000678
40
145.86652640600198
210
9.894593143292377e-17
220
0
230
-1
100
AcDbArc
50
0
51
180
0
ARC
5
178
100
AcDbEntity
8
0
100
AcDbCircle
10
0.10235299999990813
20
-0.5191560000000095
30
-3.1750000000000678
40
183.86652640600204
210
9.9630314796206964e-17
220
0
230
-1
100
AcDbArc
50
0
51
180
0
ARC
5
179
100
AcDbEntity
8
0
100
AcDbCircle
10
0.10235299999990813
20
-0.5191560000000095
30
-3.1750000000000678
40
85.92800000000075
210
9.6902903415517665e-17
220
0
230
-1
100
AcDbArc
50
0
51
180
0
LINE
5
180
100
AcDbEntity
8
0
100
AcDbLine
10
107.92350025963336
20
-0.36446628571437245
30
0
11
107.92342485235562
21
-4.8330656985915477
31
0
0
LINE
5
181
100
AcDbEntity
8
0
100
AcDbLine
10
107.92342485235562
20
-4.8330656985915477
30
0
11
100.50655929186739
21
-14.306981488724638
31
0
0
LINE
5
182
100
AcDbEntity
8
0
100
AcDbLine
10
108.45359781771819
20
-5.5932033187408381
30
0.0073494095879212198
11
101.11271312462797
21
-14.321839512160802
31
0.00053761129308247952
0
LINE
5
183
100
AcDbEntity
8
0
100
AcDbLine
10
-107.95334982071495
20
-0.37584299363146922
30
0
11
-107.97787048740733
21
-4.9689332879913097
31
0
0
LINE
5
184
100
AcDbEntity
8
0
100
AcDbLine
10
-107.97787048740733
20
-4.9689332879913097
30
0
11
-100.07642070858005
21
-9.7991261951988502
31
0
0
LINE
5
185
100
AcDbEntity
8
0
100
AcDbLine
10
-108.65887897575945
20
-5.5930006086093442
30
3.1750000000000567
11
-101.0057035734923
21
-9.8156795911053418
31
3.1750000000000966
0
LINE
5
186
100
AcDbEntity
8
0
100
AcDbLine
10
-101.0057035734923
20
-9.8156795911053418
30
3.1750000000000966
11
-121.02590424682312
21
-25.315473648589759
31
3.1750000000000966
0
LINE
5
187
100
AcDbEntity
8
0
100
AcDbLine
10
-121.02590424682312
20
-25.315473648589759
30
3.1750000000000966
11
-102.49600342514074
21
-40.066778842145688
31
3.1750000000000966
0
LINE
5
188
100
AcDbEntity
8
0
100
AcDbLine
10
-99.975435164717823
20
-39.993803809989345
30
0
11
-107.27887960014229
21
-50.519156332579499
31
3.1750000000000482
0
LINE
5
189
100
AcDbEntity
8
0
100
AcDbLine
10
-102.49600342514074
20
-40.066778842145688
30
3.1750000000000966
11
-108.6588789999999
21
-50.519156000000009
31
3.1749999999999998
0
ENDSEC
0
SECTION
2
OBJECTS
0
DICTIONARY
5
C
100
AcDbDictionary
3
ACAD_GROUP
350
D
3
ACAD_MLINESTYLE
350
17
0
DICTIONARY
5
D
100
AcDbDictionary
0
DICTIONARY
5
1A
330
C
100
AcDbDictionary
0
DICTIONARY
5
17
100
AcDbDictionary
0
ENDSEC
0
EOF
